<svg id="Layer_1" data-name="Layer 1" xmlns="http://www.w3.org/2000/svg" viewBox="0 0 200 200"><path d="M163,27.14a30.43,30.43,0,0,0-43,0l-3.21,3.22-.45-.45a8.42,8.42,0,0,0-11.88,0L97,37.43a8.4,8.4,0,0,0,0,11.88l.45.45L54.6,92.57l-.45-.45a8.4,8.4,0,0,0-11.88,0l-7.52,7.52a8.4,8.4,0,0,0,0,11.88l.46.47-3.83,3.79a30.39,30.39,0,0,0,43,43l3.9-3.81a8.38,8.38,0,0,0,11.67-.19l7.52-7.52a8.38,8.38,0,0,0,.15-11.71l42.82-42.83a8.38,8.38,0,0,0,11.72-.14l7.52-7.53a8.38,8.38,0,0,0,.15-11.71L163,70.12A30.43,30.43,0,0,0,163,27.14Zm-4.95,5a23.42,23.42,0,0,1,0,33.08l-3.21,3.22-.16-.16a8.4,8.4,0,0,0-11.88,0l-2,2L119.32,48.74l2-2a8.41,8.41,0,0,0,.41-11.42L125,32.09A23.42,23.42,0,0,1,158.05,32.09ZM92.47,130.44a8.4,8.4,0,0,0-11.88,0l-2,2-3.88-3.88,7.7-7.69a6.3,6.3,0,0,0,0-8.88l-4.17-4.17h0a6.3,6.3,0,0,0-8.88,0L66,111.21h0l-4.3,4.3L57.11,111l2-2a8.38,8.38,0,0,0,.41-11.42l42.86-42.85a8.38,8.38,0,0,0,11.41-.42l2-2,4.55,4.55-7.8,7.81a6.28,6.28,0,0,0,0,8.88l4.16,4.16a6.28,6.28,0,0,0,8.88,0l7.81-7.81,3.88,3.89-2,2a8.38,8.38,0,0,0,0,11.88l.16.16L92.63,130.6Zm-13.6-13.12L77.24,119l-6-6,1.63-1.62a1.27,1.27,0,0,1,1.8,0l4.17,4.16A1.28,1.28,0,0,1,78.87,117.32Zm-11.13-.81,6,6L71.18,125l-6-6Zm48.33-48.33,1.63-1.63,6,6L122,74.15a1.28,1.28,0,0,1-1.8,0L116.07,70A1.27,1.27,0,0,1,116.07,68.18Zm11.14.81-6-6,2.53-2.53,6,6Zm-25.3-26.61,7.52-7.52a1.4,1.4,0,0,1,2,0l2.92,2.92h0l2,2a1.41,1.41,0,0,1,0,2l-7.53,7.52a1.37,1.37,0,0,1-1,.41,1.39,1.39,0,0,1-1-.41l-5-5A1.39,1.39,0,0,1,101.91,42.38ZM39.7,104.59l7.52-7.52a1.4,1.4,0,0,1,2,0h0l5,5a1.41,1.41,0,0,1,.41,1,1.44,1.44,0,0,1-.41,1l-7.52,7.52a1.41,1.41,0,0,1-2,0l-5-5a1.37,1.37,0,0,1-.41-1A1.39,1.39,0,0,1,39.7,104.59Zm-3.37,49.23a23.41,23.41,0,0,1,0-33.07l3.86-3.84a8.38,8.38,0,0,0,11.4-.43l2-2L75.06,136l-2,2a8.4,8.4,0,0,0,0,11.88l.21.2-3.86,3.77A23.43,23.43,0,0,1,36.33,153.82Zm56.14-11.5L85,149.85a1.39,1.39,0,0,1-1,.4,1.42,1.42,0,0,1-1-.4l-5-5a1.39,1.39,0,0,1-.41-1,1.37,1.37,0,0,1,.41-1l7.52-7.52a1.36,1.36,0,0,1,1-.41,1.39,1.39,0,0,1,1,.41l5,5a1.39,1.39,0,0,1,.41,1A1.37,1.37,0,0,1,92.47,142.32Zm62.21-62.21-7.52,7.53a1.41,1.41,0,0,1-1,.41,1.44,1.44,0,0,1-1-.41L143,85.42a.94.94,0,0,0-.09-.12l-.11-.09-2.53-2.53a1.4,1.4,0,0,1,0-2l7.52-7.52a1.37,1.37,0,0,1,1-.41,1.39,1.39,0,0,1,1,.41l5,4.95a1.39,1.39,0,0,1,.41,1A1.37,1.37,0,0,1,154.68,80.11Z"/><path d="M98.5,79.58a12.46,12.46,0,1,0,8.82,3.65A12.42,12.42,0,0,0,98.5,79.58Zm5.29,17.76h0A7.5,7.5,0,1,1,106,92.06,7.45,7.45,0,0,1,103.79,97.34Z"/></svg>