<svg id="Layer_1" data-name="Layer 1" xmlns="http://www.w3.org/2000/svg" viewBox="0 0 200 200"><path d="M64.48,135.4a2.49,2.49,0,0,0-3.53,0L49,147.35a2.52,2.52,0,0,0,0,3.54,2.51,2.51,0,0,0,3.54,0l12-12A2.5,2.5,0,0,0,64.48,135.4Z"/><path d="M156.17,43.71a63.05,63.05,0,0,0-98.4,77.44l-28.49,24.4a11.11,11.11,0,0,0-.63,16.3l4.69,4.69.15.12a1.49,1.49,0,0,0,.12.14l4.69,4.7a11.15,11.15,0,0,0,7.86,3.25h.43a11.17,11.17,0,0,0,8-3.87l24.46-28.56a62.74,62.74,0,0,0,32.43,9c.61,0,1.22,0,1.83-.05.12,0,.24,0,.36,0a3.8,3.8,0,0,0,.59-.06,63,63,0,0,0,41.9-107.52ZM55.93,95l14.94,14.94-7.7,6.59A55.75,55.75,0,0,1,55.93,95Zm-3.37,67.5-14.9-14.9,38.17-32.7,9.42,9.43Zm-6.24,5.26a4.07,4.07,0,0,1-3.07-1.2l-4.69-4.69a1.58,1.58,0,0,0-.15-.12,1.58,1.58,0,0,0-.12-.15L33.6,156.9a4.12,4.12,0,0,1,.23-6l0,0L49.3,166.3l0,0A4.12,4.12,0,0,1,46.32,167.75Zm43.9-38.47,14.62,14.62a55.56,55.56,0,0,1-21.15-7ZM115,144.19,55.66,84.82A56.07,56.07,0,1,1,115,144.19Z"/></svg>