<svg id="Layer_1" data-name="Layer 1" xmlns="http://www.w3.org/2000/svg" viewBox="0 0 200 200"><path d="M154.3,144.65h4.25a3.5,3.5,0,0,0,0-7h-5.23V133a7,7,0,0,0,5.54-6.79v-6.06a26.52,26.52,0,0,0-23.5-26.35l-17.79-2a16.24,16.24,0,0,1-14.39-16.14V72.35h1.24a5.21,5.21,0,0,0,5.21-5.21V62.77a5.21,5.21,0,0,0-5.21-5.21h-1.24v-2.5h1.24a5.21,5.21,0,0,0,5.21-5.21V45.48a5.21,5.21,0,0,0-5.21-5.21h-1.24V33.1a8.1,8.1,0,0,0-8.1-8.1H81.38a19,19,0,0,0-9.94,2.81l-3.76,2.31L64.41,28a18.9,18.9,0,0,0-10.27-3H48.6a8.1,8.1,0,0,0-8.1,8.1v93.12A6.92,6.92,0,0,0,45,132.69v5H41.45a3.5,3.5,0,0,0,0,7H45.8a16.78,16.78,0,1,0,24.67,21.5,16.78,16.78,0,0,0,29.58,0,16.78,16.78,0,0,0,29.58,0,16.79,16.79,0,1,0,24.67-21.5ZM104.63,62.77v4.37a.21.21,0,0,1-.21.21H61.51a2.4,2.4,0,0,1,0-4.79h42.91A.21.21,0,0,1,104.63,62.77Zm-8.45-5.21h-26v-2.5h26Zm8.45-12.08v4.37a.21.21,0,0,1-.21.21H61.51a2.4,2.4,0,0,1,0-4.79h42.91A.21.21,0,0,1,104.63,45.48ZM75.1,33.77A12,12,0,0,1,81.38,32h13.7a1.1,1.1,0,0,1,1.1,1.1v7.17h-26V36.82ZM48.6,32h5.54a12,12,0,0,1,6.49,1.91l4.51,2.89v3.47H61.51a7.4,7.4,0,0,0,0,14.79h3.63v2.5H61.51a7.4,7.4,0,0,0,0,14.79h3.63v6.72a2.5,2.5,0,0,0,5,0V72.35h26v3.28c0,.09,0,.18,0,.27H86a2.5,2.5,0,1,0,0,5H96.81a22.76,22.76,0,0,0,1.53,4.48L88.12,89A2.5,2.5,0,0,0,89,93.81a2.36,2.36,0,0,0,.82-.14L101,89.76a23.09,23.09,0,0,0,2.89,3.12l-6.63,7.51a2.5,2.5,0,0,0,1.87,4.15,2.51,2.51,0,0,0,1.87-.84l7-7.88a23.17,23.17,0,0,0,8.84,2.9l17.78,2a19.52,19.52,0,0,1,17.3,19.4v6h-2.05l-52.49,0-3.54-7.39a23.32,23.32,0,0,0-20.91-13.16H47.5V33.1A1.1,1.1,0,0,1,48.6,32Zm.52,94.22a3.05,3.05,0,0,0-1.3,0H47.5V112.64H72.87a16.29,16.29,0,0,1,14.6,9.19l2.09,4.36ZM52,133.15h94.35v4.5H52ZM55.68,168a9.8,9.8,0,1,1,9.8-9.8A9.81,9.81,0,0,1,55.68,168Zm14.79-17.74a16.76,16.76,0,0,0-4.91-5.61h9.82A17,17,0,0,0,70.47,150.26ZM85.26,168a9.8,9.8,0,1,1,9.8-9.8A9.81,9.81,0,0,1,85.26,168Zm14.79-17.74a17,17,0,0,0-4.91-5.61H105A17,17,0,0,0,100.05,150.26ZM114.84,168a9.8,9.8,0,1,1,9.79-9.8A9.81,9.81,0,0,1,114.84,168Zm14.79-17.74a17,17,0,0,0-4.91-5.61h9.82A17,17,0,0,0,129.63,150.26ZM144.42,168a9.8,9.8,0,1,1,9.79-9.8A9.81,9.81,0,0,1,144.42,168Z"/><path d="M144.42,155.17a3,3,0,1,0,3,3A3,3,0,0,0,144.42,155.17Z"/><path d="M114.84,155.17a3,3,0,1,0,3,3A3,3,0,0,0,114.84,155.17Z"/><path d="M85.29,155.17a3,3,0,1,0,3,3A3,3,0,0,0,85.29,155.17Z"/><path d="M55.68,155.17a3,3,0,1,0,3,3A3,3,0,0,0,55.68,155.17Z"/></svg>