<svg id="Layer_1" data-name="Layer 1" xmlns="http://www.w3.org/2000/svg" viewBox="0 0 200 200"><path d="M172.9,103.61a14.47,14.47,0,0,0-10.61-7.07l-17.71-2.38-4.34-2.44a2.5,2.5,0,0,0-3.74-3.31l-.73.8-3.31-1.85a2.49,2.49,0,0,0-3.73-3.31l-.74.8-3.19-1.79A2.49,2.49,0,0,0,121,79.91l-.6.65L117,78.7a2.49,2.49,0,0,0-3.85-3.15l-.6.65L99.1,68.64l-6.61-4.22a10.37,10.37,0,0,0-14.93,4.26A10.43,10.43,0,0,0,77.73,78L79,80.32l-1.21.85A9.75,9.75,0,0,1,63.67,78L59,69.74a8,8,0,0,0-9.78-3.56l-1,.37a22.62,22.62,0,0,0-12.95,12.5l-3,7.3a51.4,51.4,0,0,0-3.94,19.77v7.29L25.53,121a7.09,7.09,0,0,0,3.71,8.83l3.41,1.55a64.73,64.73,0,0,0,27,5.88H141.4a57.26,57.26,0,0,0,19.35-3.36A17.28,17.28,0,0,0,172,120.37l1.52-3.24A14.57,14.57,0,0,0,172.9,103.61Zm-27.7-2.3,14.16,1.9-11.57,4.38a10.3,10.3,0,0,1-8.59-.58A10.11,10.11,0,0,0,145.2,101.31Zm-12.12,7.23a15.27,15.27,0,0,0,11,4.73,15.58,15.58,0,0,0,5.46-1L166,106a7.35,7.35,0,0,1,1.13,8.12l-.93,2-21.08,3.13A70.33,70.33,0,0,1,135,120H117.92A28.55,28.55,0,0,1,133.08,108.54ZM106.84,86.15a2.52,2.52,0,0,0,3.54-.16l1.81-2,3.3,1.85-1,1.11a2.49,2.49,0,0,0,1.84,4.19,2.47,2.47,0,0,0,1.84-.81l1.82-2,3.16,1.77-.88,1a2.5,2.5,0,0,0,.15,3.54,2.51,2.51,0,0,0,3.53-.16l1.68-1.83,3.3,1.85-.89,1a2.51,2.51,0,0,0,.16,3.54,2.51,2.51,0,0,0,3.53-.16L135.38,97l5,2.81a5.05,5.05,0,0,1-3.41,2.63l-2.18.46a33.53,33.53,0,0,0-22.26,16.29l-.44.79H91.32a18,18,0,0,0-7.49-11.4l-2.07-1.42,23.88-26.84,2.07,1.16-1,1.11A2.52,2.52,0,0,0,106.84,86.15Zm-71.57,20a44.37,44.37,0,0,1,1.67-12.05c3.17,1,9.41,3.08,21.64,7.13a80.73,80.73,0,0,1,20.31,10.08L81,112.73A13.1,13.1,0,0,1,86.18,120H78.34a69.05,69.05,0,0,1-16.93-2.1l-26.14-6.6v-5.18ZM83.93,74.71a3.36,3.36,0,0,1-.05-3,3.36,3.36,0,0,1,4.84-1.38L91,71.8l-6.3,4.44ZM81.79,86.89l15.73-11.1,3.66,2L77.5,104.46a85.71,85.71,0,0,0-17.34-8L43.69,91l-5.13-1.68c0-.1.07-.21.12-.31l1.07-2.58,10.51,3.83a17.37,17.37,0,0,0,15.31-1.69,15.6,15.6,0,0,0,2.92,1A16.75,16.75,0,0,0,81.79,86.89ZM50.64,73.1l1-.36a1,1,0,0,1,1.25.46l4.71,8.29a16.59,16.59,0,0,0,3.17,4,12.4,12.4,0,0,1-8.78.11L41.66,81.83l0-.1A15.65,15.65,0,0,1,50.64,73.1Zm107.74,54.16a50.14,50.14,0,0,1-17,3H59.69A57.78,57.78,0,0,1,35.55,125l-3.44-1.62L34,118.2l25.72,6.49A76.09,76.09,0,0,0,78.34,127H135a76.07,76.07,0,0,0,11.18-.83l17-2.52A10.33,10.33,0,0,1,158.38,127.26Z"/></svg>