<svg id="Layer_1" data-name="Layer 1" xmlns="http://www.w3.org/2000/svg" viewBox="0 0 200 200"><path d="M146.83,92.68a27.89,27.89,0,0,0-7.47,1L124.93,58.49h19a4.31,4.31,0,1,1,0,8.62h-3.1a3.5,3.5,0,0,0,0,7h3.1a11.31,11.31,0,1,0,0-22.62H119.71a3.5,3.5,0,0,0-3.24,4.83l9.58,23.35H81.78l-4.46-8.94h5.1c5.32,0,9.65-4,9.65-8.89,0-4.5-3.65-8.3-8.5-8.84L65.71,51a10.1,10.1,0,0,0-7.87,2.45,8.46,8.46,0,0,0-2.92,6.38v2c0,4.9,4.32,8.89,9.64,8.89H69.5L74.82,81.4,65.55,95.56a28.17,28.17,0,1,0,15.57,28.8h6.93a11.27,11.27,0,0,0,7.89,6.69v6.13a2.5,2.5,0,0,0,5,0v-6.13A11.22,11.22,0,0,0,107.86,114l22.26-24.38,2.78,6.77a28.14,28.14,0,1,0,13.93-3.71ZM61.92,61.84v-2a1.58,1.58,0,0,1,.59-1.16,3,3,0,0,1,2-.73,2.55,2.55,0,0,1,.39,0L82.8,60h0c1.26.14,2.26,1,2.26,1.88s-1.24,1.89-2.65,1.89H64.56C63.15,63.73,61.92,62.85,61.92,61.84ZM78.44,88.65,90.3,112.38a11.2,11.2,0,0,0-2.74,5H81.12a28.13,28.13,0,0,0-9.72-18Zm20,28.95a2.5,2.5,0,0,0-2.5,2.5v5.71a6.23,6.23,0,1,1,5,0V120.1A2.5,2.5,0,0,0,98.44,117.6Zm-28.22-.24a17.41,17.41,0,0,0-4.79-8.84l2.09-3.19a21.15,21.15,0,0,1,6.51,12Zm-20.13,5.16a3.51,3.51,0,0,0,3.08,1.84H65.06a12.4,12.4,0,1,1-11.89-15.91,12.19,12.19,0,0,1,3.59.54l-6.52,10A3.51,3.51,0,0,0,50.09,122.52Zm9.56-5.16,3-4.53a12.31,12.31,0,0,1,2.45,4.53ZM53.17,142a21.18,21.18,0,0,1,0-42.35,21,21,0,0,1,8.5,1.8l-2.1,3.21a17.24,17.24,0,0,0-6.4-1.24,17.41,17.41,0,1,0,17,20.91H74A21.19,21.19,0,0,1,53.17,142ZM102.4,109.6a11.05,11.05,0,0,0-4-.73,11.66,11.66,0,0,0-2,.18L85.28,86.67h38.05ZM146.83,142A21.15,21.15,0,0,1,135.58,103l1.45,3.53a17.5,17.5,0,1,0,6.46-2.7L142,100.25A21.17,21.17,0,1,1,146.83,142Zm-3.36-19.84a3.5,3.5,0,1,0,6.48-2.66l-4.51-11a12.81,12.81,0,0,1,1.39-.09,12.43,12.43,0,1,1-7.84,2.81Z"/></svg>