<svg id="Layer_1" data-name="Layer 1" xmlns="http://www.w3.org/2000/svg" viewBox="0 0 200 200"><path d="M167,89.54h-2.55V80.06a7.15,7.15,0,0,0-7.14-7.14H148.8V65.41a7.15,7.15,0,0,0-7.14-7.14H125.28a7.15,7.15,0,0,0-7.14,7.14V89.54H81.86V65.41a7.15,7.15,0,0,0-7.14-7.14H58.34a7.15,7.15,0,0,0-7.14,7.14v7.52H42.68a7.15,7.15,0,0,0-7.14,7.15v9.47H33a7.55,7.55,0,0,0-7.54,7.54v5.84A7.55,7.55,0,0,0,33,110.46h2.55v9.48a7.15,7.15,0,0,0,7.14,7.14H51.2v7.52a7.15,7.15,0,0,0,7.14,7.14H74.72a7.15,7.15,0,0,0,7.14-7.14V110.46h36.28v24.13a7.15,7.15,0,0,0,7.15,7.14h16.37a7.14,7.14,0,0,0,7.14-7.14v-7.52h8.52a7.16,7.16,0,0,0,7.15-7.15v-9.47H167a7.55,7.55,0,0,0,7.54-7.54V97.08A7.55,7.55,0,0,0,167,89.54Zm-9.69,30.54h-8.38a.15.15,0,0,1-.14-.15V80.06a.14.14,0,0,1,.14-.14h8.38a.15.15,0,0,1,.15.14v39.87A.16.16,0,0,1,157.32,120.08Zm-15.52-.15v14.66a.14.14,0,0,1-.14.14H125.29a.15.15,0,0,1-.15-.14V65.41a.15.15,0,0,1,.15-.14h16.37a.14.14,0,0,1,.14.14v54.52Zm-67.08,14.8H58.34a.14.14,0,0,1-.14-.14V65.41a.14.14,0,0,1,.14-.14H74.72a.14.14,0,0,1,.14.14v69.18A.14.14,0,0,1,74.72,134.73Zm-32-14.65a.15.15,0,0,1-.14-.15V80.06a.14.14,0,0,1,.14-.14h8.38a.14.14,0,0,1,.14.14v39.87a.15.15,0,0,1-.14.15ZM33,103.46a.54.54,0,0,1-.54-.54V97.08a.54.54,0,0,1,.54-.54h2.55v6.92Zm48.87,0V96.54h36.28v6.92Zm85.69-.54a.54.54,0,0,1-.54.54h-2.55V96.54H167a.54.54,0,0,1,.54.54Z"/></svg>