<svg id="Layer_1" data-name="Layer 1" xmlns="http://www.w3.org/2000/svg" viewBox="0 0 200 200"><path d="M101,148.61H84.92a2.5,2.5,0,0,0,0,5H101a2.5,2.5,0,1,0,0-5Z"/><path d="M97.5,156H88.41a2.5,2.5,0,0,0,0,5H97.5a2.5,2.5,0,0,0,0-5Z"/><path d="M135.87,102.83V99.9a17.11,17.11,0,0,0-13.58-16.72V79.32a3.5,3.5,0,0,0-3.5-3.5h-9.4V67.64h9.4a10.3,10.3,0,0,0,0-20.59h-6.11a10.3,10.3,0,0,0-10.29,10.3V75.82h-6.2V45.59h9.4a10.3,10.3,0,1,0,0-20.59h-6.1a10.31,10.31,0,0,0-10.3,10.3V75.82H85.87s0-.09,0-.14V62.29A10.3,10.3,0,0,0,75.59,52h-6.1a10.3,10.3,0,1,0,0,20.59h9.39v3.1s0,.09,0,.14h-14a3.5,3.5,0,0,0-3.5,3.5v14a3.49,3.49,0,0,0,3.5,3.5h1.27v5.61H63.65a3.5,3.5,0,0,0-3.5,3.5V145.7a3.5,3.5,0,0,0,3.5,3.5h2.49v8.73A17.09,17.09,0,0,0,83.21,175H114a3.5,3.5,0,0,0,3.5-3.5v-4a21.76,21.76,0,0,0,18.26-19.33,8.45,8.45,0,0,0,5-7.71V110.5A8.46,8.46,0,0,0,135.87,102.83ZM109.39,57.35a3.3,3.3,0,0,1,3.29-3.3h6.11a3.3,3.3,0,0,1,0,6.59h-9.4V57.35ZM96.19,35.3a3.3,3.3,0,0,1,3.3-3.3h6.1a3.3,3.3,0,1,1,0,6.59H96.2V35.3ZM78.88,65.58H69.49a3.3,3.3,0,1,1,0-6.59h6.1a3.29,3.29,0,0,1,3.29,3.3Zm52.06,74.84V110.5a1.44,1.44,0,0,1,2.87,0v29.92a1.44,1.44,0,0,1-2.87,0ZM68.37,82.82h46.92v7H68.37Zm2.22,59.38H67.15V109.41h8.36v27.87A4.93,4.93,0,0,1,70.59,142.2ZM110.51,168H83.21a10.08,10.08,0,0,1-10.07-10.06v-9a12,12,0,0,0,9.37-11.64V105.91a3.5,3.5,0,0,0-3.5-3.5H73.15V96.8h37.36Zm7-7.68V96.8h1.27a3.49,3.49,0,0,0,3.5-3.5V90.45a10.1,10.1,0,0,1,6.59,9.45v2.93a8.46,8.46,0,0,0-4.93,7.67v29.92a8.43,8.43,0,0,0,4.78,7.59A14.73,14.73,0,0,1,117.51,160.32Z"/></svg>