<svg id="Layer_1" data-name="Layer 1" xmlns="http://www.w3.org/2000/svg" viewBox="0 0 200 200"><path d="M47.64,147.19a2.5,2.5,0,0,0-3.54,0l-4.72,4.73a2.5,2.5,0,0,0,3.54,3.53l4.72-4.72A2.52,2.52,0,0,0,47.64,147.19Z"/><path d="M50,153.12l-4.72,4.73a2.5,2.5,0,0,0,3.54,3.53l4.72-4.72A2.5,2.5,0,1,0,50,153.12Z"/><path d="M169.24,41.68,159,31.43a8.05,8.05,0,0,0-11.41,0l-11.5,11.51h0a15.05,15.05,0,0,0-2,18.73l-8.39,8.39h0c-.22-1-.46-1.9-.71-2.82a98.19,98.19,0,0,0-4.68-13.67l0-.1a96,96,0,0,0-17.67-27.33,1,1,0,0,0-.11-.1,1.31,1.31,0,0,0-.11-.12,1.58,1.58,0,0,0-.15-.12l-.3-.22-.28-.16-.33-.16-.3-.1-.34-.09-.32,0L100,25l-.32,0a2,2,0,0,0-.34,0,1.87,1.87,0,0,0-.32.08,1.73,1.73,0,0,0-.32.11l-.31.14-.3.17-.28.22a1.67,1.67,0,0,0-.16.12,1.31,1.31,0,0,0-.11.12.52.52,0,0,0-.11.1A96,96,0,0,0,79.75,53.47l0,.1C73.9,67.2,71,82.58,71,100a139,139,0,0,0,1.37,19.86c.15,1,.31,2,.49,3h0L61,134.82a15,15,0,0,0-18.73,2L30.76,148.36a8.06,8.06,0,0,0,0,11.4L41,170a8.08,8.08,0,0,0,11.41,0l11.5-11.52a15,15,0,0,0,2-18.73l13.84-13.84.69-.7h0l7.61-7.61a8.81,8.81,0,0,0,2.21,1.32,8.62,8.62,0,0,0,3.29.65H96.5v22H85.31a95.42,95.42,0,0,1-4.21-13.49l-5.76,5.77a98.65,98.65,0,0,0,4.36,12.54l0,.1a96,96,0,0,0,17.67,27.33.57.57,0,0,0,.11.11l.11.11a1,1,0,0,0,.2.15,1.3,1.3,0,0,0,.23.18,2.71,2.71,0,0,0,.37.21l.24.12.44.14.21,0a3.24,3.24,0,0,0,1.34,0l.2,0,.45-.14.24-.12a3.47,3.47,0,0,0,.37-.21,1.81,1.81,0,0,0,.23-.18,1.49,1.49,0,0,0,.2-.15l.11-.11a.38.38,0,0,0,.11-.11,96,96,0,0,0,17.67-27.33l0-.1c5.81-13.63,8.68-29,8.68-46.43a140.55,140.55,0,0,0-1.19-18.59l-6.35,6.35Q122,93.68,122,100c0,15.55-2.41,29.34-7.29,41.61H103.5v-22h2.93a8.64,8.64,0,0,0,8.63-8.63v-14a15,15,0,0,0-1-5.33l24.94-25a15,15,0,0,0,18.73-2l11.49-11.5A8.08,8.08,0,0,0,169.24,41.68ZM59,153.55,47.45,165.06a1,1,0,0,1-.75.31,1,1,0,0,1-.75-.31L35.71,154.81a1.05,1.05,0,0,1,0-1.5L47.2,141.8a8,8,0,0,1,11.37,0l.19.19h0l.2.2A8,8,0,0,1,59,153.55ZM100,33.82a88.62,88.62,0,0,1,11.55,17.56H88.45A88.62,88.62,0,0,1,100,33.82ZM78.69,113.56A135.21,135.21,0,0,1,78,100c0-15.56,2.41-29.34,7.28-41.61h29.37a95.68,95.68,0,0,1,4.49,14.66c.23,1,.43,1.94.61,2.92h0l-9.73,9.74h0a14.73,14.73,0,0,0-2-1.52,15.05,15.05,0,0,0-23.1,12.73v13.92h0l-5.89,5.89C78.91,115.68,78.79,114.62,78.69,113.56Zm13.25-9.73h0V96.91A8.06,8.06,0,0,1,100,88.85l.61,0,.21,0,.58.08.12,0c.22,0,.44.1.65.16s.4.12.6.19l.08,0a7.23,7.23,0,0,1,1.16.55,7.13,7.13,0,0,1,1.08.74h0Zm19.61,44.77A88.33,88.33,0,0,1,100,166.16,88.33,88.33,0,0,1,88.45,148.6H99.62c.13,0,.25,0,.38,0s.25,0,.38,0ZM108.06,111a1.62,1.62,0,0,1-1.63,1.62H93.57l-.28,0a.7.7,0,0,1-.14,0h0L108.06,97.6Zm56.23-62.83-11.5,11.5a8,8,0,0,1-11.36,0l-.19-.19h0l-.2-.2a8,8,0,0,1,0-11.35h0l11.5-11.52a1.1,1.1,0,0,1,.76-.31,1.07,1.07,0,0,1,.75.31l10.24,10.25A1.06,1.06,0,0,1,164.29,48.13Z"/><path d="M157.08,46l-4.72,4.72a2.5,2.5,0,0,0,3.54,3.53l4.72-4.72A2.5,2.5,0,1,0,157.08,46Z"/><path d="M154.69,40.05a2.52,2.52,0,0,0-3.54,0l-4.72,4.72a2.52,2.52,0,0,0,0,3.54,2.51,2.51,0,0,0,3.54,0l4.72-4.72A2.52,2.52,0,0,0,154.69,40.05Z"/></svg>