<svg id="Layer_1" data-name="Layer 1" xmlns="http://www.w3.org/2000/svg" viewBox="0 0 200 200"><path d="M174.88,42.49A15.59,15.59,0,0,0,157.5,25.12c-21.27,2.64-53.64,12.79-87,46.17-31.36,31.35-42,61.9-45.43,82a3.5,3.5,0,0,0,4.58,3.9L44.86,152A2.49,2.49,0,0,1,48,155.14l-5.21,15.23A3.5,3.5,0,0,0,46.13,175a3.79,3.79,0,0,0,.58-.05c15.13-2.57,36.18-9.25,59-25.77h6.46a14.88,14.88,0,0,0,17.5,23.36,11.66,11.66,0,0,0,5.67,1.46h12.49a13.27,13.27,0,0,0,13.25-13.25v-8.33h1.46a5.15,5.15,0,0,0,5.14-5.15v-7.92a5.15,5.15,0,0,0-5.14-5.15h-7.92a5.16,5.16,0,0,0-5.15,5.15v7.92a5.16,5.16,0,0,0,5.15,5.15h1.46v8.33a8.26,8.26,0,0,1-8.25,8.25H145a11.79,11.79,0,0,0-9.62-18.62,14.87,14.87,0,0,0-12.07-6.2h-11a196.28,196.28,0,0,0,16.39-14.66C162.09,96.13,172.25,63.77,174.88,42.49ZM154.65,147.42a.15.15,0,0,1-.15-.15v-7.92a.15.15,0,0,1,.15-.14h7.92a.15.15,0,0,1,.15.14v7.92a.15.15,0,0,1-.15.15Zm-16.43,11.67a14.34,14.34,0,0,0-.37-3.23A6.8,6.8,0,0,1,135.37,169a8.67,8.67,0,0,1-.89-.06A14.86,14.86,0,0,0,138.22,159.09Zm-5.53-3.16a9.7,9.7,0,0,1,.53,3.16,9.86,9.86,0,0,1-3.21,7.28,6.71,6.71,0,0,1-1.45-4.18A6.81,6.81,0,0,1,132.69,155.93Zm-9.38-6.75a9.82,9.82,0,0,1,6.6,2.55,11.78,11.78,0,0,0-4.36,17,10.32,10.32,0,0,1-2.24.26,9.91,9.91,0,0,1,0-19.82Zm.45-24.61-.64.63-22.39-22.39,19.69-19.69,21,21A185.35,185.35,0,0,1,123.76,124.57ZM108.09,50.26l19.06,19.06-6.73,6.73L99.94,55.57Q104.07,52.71,108.09,50.26Zm22.59,22.59,19.06,19.06q-2.44,4-5.31,8.14L124,79.58Zm37.25-31.22c-1.5,12.13-5.61,28.08-15.58,45.82L134.22,69.32,167,36.56A8.52,8.52,0,0,1,167.93,41.63Zm-9.56-9.56a8.37,8.37,0,0,1,5.07,1L130.68,65.78,112.55,47.65C130.29,37.68,146.24,33.57,158.37,32.07ZM95.83,58.53l21,21L97.19,99.27,74.8,76.88c.21-.21.41-.43.63-.64A185.35,185.35,0,0,1,95.83,58.53ZM79.34,149.18H93.25A133.74,133.74,0,0,1,51.4,166.89l3.25-9.49a9.49,9.49,0,0,0-12-12.05l-9.49,3.25c4-17.93,14.09-42.52,38.22-68.12l22.33,22.33L55.74,140.72a2.5,2.5,0,0,0,0,3.54,2.51,2.51,0,0,0,3.54,0l37.91-37.92,22.33,22.33a176.52,176.52,0,0,1-18.82,15.51H79.34a2.5,2.5,0,0,0,0,5Z"/></svg>