<svg id="Layer_1" data-name="Layer 1" xmlns="http://www.w3.org/2000/svg" viewBox="0 0 200 200"><path d="M155.3,44.71a30.36,30.36,0,0,0-43,0L91.64,65.42a30.39,30.39,0,0,0,0,43,29.73,29.73,0,0,0,4.22,3.52,24.06,24.06,0,0,1,4-5.77c-.47-.32-.94-.67-1.39-1l5.87-5.86,1.94,1.94a23.78,23.78,0,0,1,5.07-2l-3.48-3.48,6-6,5.71,5.71-3,3q.52,0,1,0a24,24,0,0,1,5.45.61l0,0,0,0a23.94,23.94,0,0,1,12.12,7c.29.31.57.62.83.94L155.3,87.66A30.39,30.39,0,0,0,155.3,44.71ZM156,58.94l-4.15,4.16-5.71-5.71L152,51.52A23.09,23.09,0,0,1,156,58.94Zm-26.51,8-6,6-5.71-5.7,6-6Zm-2.17-9.24,6-6,5.71,5.71-6,6Zm5.71,12.78,5.7,5.71-6,6L127,76.54ZM136.58,67l6-6,5.71,5.71-6,6Zm4.51-23a23.39,23.39,0,0,1,7.4,4l-5.87,5.87-5.71-5.71Zm-7.27-1.15c.44,0,.88,0,1.32,0l-1.76,1.76-1.7-1.7C132.39,42.85,133.1,42.81,133.82,42.81Zm-7.94,1.38,4,4-6,6-5.48-5.48A23.17,23.17,0,0,1,125.88,44.19Zm-11.13,8,5.52,5.52-6,6-5.52-5.52Zm-9.58,9.58,5.52,5.52-6,6-5.52-5.52ZM95.65,71.4l5.46,5.47-6,6L91.15,79A23.3,23.3,0,0,1,95.65,71.4Zm-5.8,13.36,1.69,1.69-1.73,1.72A24.28,24.28,0,0,1,89.85,84.76Zm5.07,16.8a23.09,23.09,0,0,1-4-7.42L95.07,90l5.71,5.71Zm9.4-9.4-5.71-5.71,6-6,5.71,5.71Zm3.86-15.29,6-6,5.7,5.71-6,6Zm15,15-5.71-5.71,6-6,5.71,5.7Zm9,9-5.52-5.52,6-6,5.52,5.52Zm9.58-9.58-5.52-5.52,6-6,5.52,5.52Zm9.52-9.62-5.46-5.47,6-6,3.92,3.93A23.36,23.36,0,0,1,151.29,81.68Zm4.11-15.05,1.73-1.72a24.24,24.24,0,0,1,0,3.41Z"/><path d="M163,37a41,41,0,0,0-58,0l-21,21a40.74,40.74,0,0,0-11.23,21s0,0,0,.08a40.44,40.44,0,0,0-.77,7.73L72,97.3A36.76,36.76,0,0,1,63.56,121a3.5,3.5,0,0,0-3.93.69L27.84,153.51a9.7,9.7,0,0,0,0,13.69l5,5a9.51,9.51,0,0,0,3.2,2.12,9.8,9.8,0,0,0,3.65.71,9.65,9.65,0,0,0,6.84-2.83l31.78-31.79a3.49,3.49,0,0,0,.7-3.93,36.78,36.78,0,0,1,15.21-7.54c.81-.19,1.63-.35,2.46-.47h0a21.81,21.81,0,0,0,42.82-5.82,22.1,22.1,0,0,0-.37-4h0c.74-.6,1.46-1.24,2.15-1.91l.68-.66L163,95a41.05,41.05,0,0,0,0-58ZM41.55,167.22a2.69,2.69,0,0,1-3.79,0l-5-5a2.69,2.69,0,0,1,0-3.79L62.1,129.15l8.76,8.76Zm61.31-44.6a14.7,14.7,0,0,1,2.8-8.63,11.84,11.84,0,0,1,0,17.27A14.71,14.71,0,0,1,102.86,122.62Zm14.81,14.82a14.63,14.63,0,0,1-8.45-2.65,16.87,16.87,0,0,0,0-24.33,14.8,14.8,0,0,1,16.93,0,16.87,16.87,0,0,0,0,24.29A14.65,14.65,0,0,1,117.67,137.44ZM126,122.62a11.89,11.89,0,0,1,3.71-8.6,14.66,14.66,0,0,1,0,17.21A11.89,11.89,0,0,1,126,122.62Zm32.06-32.56L137,111.12l-.51.49h0a21.57,21.57,0,0,0-2.13-3h0c-.24-.3-.5-.59-.77-.88l-.09-.11-.1-.09c-.46-.48-.93-.93-1.42-1.36l-.6-.49c-.34-.27-.68-.54-1-.8s-.51-.35-.77-.52-.61-.39-.93-.57-.63-.36-1-.53c-.13-.07-.25-.15-.39-.21l0,0a21.76,21.76,0,0,0-25.46,4.51c-.08.08-.14.17-.22.25-.36.39-.71.79-1,1.21-.13.16-.24.33-.36.49q-.41.52-.78,1.08l-.36.58c-.22.36-.43.72-.63,1.09l-.33.62c-.05.11-.11.21-.17.32h0a21.69,21.69,0,0,0-2.08,8.22h0c-.84.12-1.68.27-2.51.45a43.9,43.9,0,0,0-19.2,9.41l-5.5-5.5A43.78,43.78,0,0,0,79,97.24l-.1-10.39a34.63,34.63,0,0,1,.63-6.36.09.09,0,0,0,0,0A33.83,33.83,0,0,1,88.9,63L110,42a34,34,0,0,1,48.1,48.09Z"/></svg>