<svg id="Layer_1" data-name="Layer 1" xmlns="http://www.w3.org/2000/svg" viewBox="0 0 200 200"><path d="M164.48,19.77H43.09a3.5,3.5,0,0,0-3.5,3.5V101a3.5,3.5,0,0,0,3.5,3.5H53.38a9.6,9.6,0,0,0,8.93,6.1h2.25c3.34,8.2,8.75,32.94,5.35,55.37a2.5,2.5,0,0,0,1.27,2.57,2.58,2.58,0,0,0,1.2.31,2.47,2.47,0,0,0,1.64-.62l13.42-11.65,14.49,12.59.1.07.16.12a1.43,1.43,0,0,0,.27.15l.17.08a1.73,1.73,0,0,0,.32.11l.14,0a2.61,2.61,0,0,0,.48.05h0a2.63,2.63,0,0,0,.49-.05l.14,0a1.73,1.73,0,0,0,.32-.11l.17-.08a1.82,1.82,0,0,0,.27-.15l.16-.12.09-.07L119.9,156.4l13.59,11.81a2.51,2.51,0,0,0,1.65.62,2.58,2.58,0,0,0,1.2-.31,2.52,2.52,0,0,0,1.27-2.57c-3.4-22.43,2-47.16,5.35-55.36h2.64a9.61,9.61,0,0,0,8.93-6.11h9.95A3.5,3.5,0,0,0,168,101V23.27A3.5,3.5,0,0,0,164.48,19.77Zm-31.73,90.81-10.44,9.07-10.43-9.07Zm-37.11,0L85.2,119.65l-10.43-9.07ZM81.39,123l-7.14,6.2a123.13,123.13,0,0,0-3.31-15.28ZM75,135.1l10.16-8.83L100,139.08,87.44,149.94l-12-10.38C75.36,138.05,75.21,136.56,75,135.1ZM89,123l14.24-12.38h1L118.5,123l-14.74,12.8Zm33.29,3.31,10.16,8.83c-.15,1.35-.29,2.72-.41,4.11l-12.17,10.57-12.32-10.7Zm11,2.9L126.13,123l10.45-9.08A122.92,122.92,0,0,0,133.27,129.17Zm12.33-25.59H62.31a2.6,2.6,0,1,1,0-5.2H145.6a2.6,2.6,0,0,1,0,5.2Zm-12.94-12.2H74.91V59.88h57.75ZM75.6,160.22a120.29,120.29,0,0,0,.29-13.68l7.73,6.71Zm28,3.73-12.32-10.7,12.51-10.86,12.32,10.7Zm20.14-10.86,7.93-6.89a119.46,119.46,0,0,0,.27,14ZM161,97.48h-6.45a9.61,9.61,0,0,0-8.93-6.1h-5.94v-35a3.5,3.5,0,0,0-3.5-3.5H71.41a3.5,3.5,0,0,0-3.5,3.5v35h-5.6a9.61,9.61,0,0,0-8.93,6.1H46.59V26.77H161V97.48Z"/><path d="M94.11,101.57h19.35a2.5,2.5,0,0,0,2.5-2.5v-8.6a2.49,2.49,0,0,0-2.5-2.5H94.11a2.49,2.49,0,0,0-2.5,2.5v8.6A2.5,2.5,0,0,0,94.11,101.57Zm2.5-8.6H111v3.6H96.61Z"/></svg>